<svg xmlns="http://www.w3.org/2000/svg" xmlns:xlink="http://www.w3.org/1999/xlink" viewBox="0,0,256,256" width="48px" height="48px"><g fill="#d50000" fill-rule="nonzero" stroke="none" stroke-width="1" stroke-linecap="butt" stroke-linejoin="miter" stroke-miterlimit="10" stroke-dasharray="" stroke-dashoffset="0" font-family="none" font-weight="none" font-size="none" text-anchor="none" style="mix-blend-mode: normal"><g transform="scale(5.33333,5.33333)"><path d="M20.002,39h8v2h-8zM21.048,42h5.954v4h-5.954zM13.002,29h22v1h-22zM12.002,31h24v1h-24zM12.002,27h24v1h-24zM28.331,34.393c-1.336,1.288 -1.329,3.607 -1.329,3.607h-6c0,0 0.008,-2.319 -1.328,-3.607c-0.929,-0.902 -2.11,-1.089 -2.11,-1.089c-0.745,-0.153 -0.561,-0.255 -0.561,-0.304h14c0,0 0.085,0.143 -0.659,0.304c0,0 -1.087,0.187 -2.013,1.089M13.002,33c0.264,0 2.629,0 3,0c0,1.232 -0.829,1.927 -2,1.995c-0.312,0.018 -0.648,-0.009 -1,-0.082c0,-0.998 0,-1.407 0,-1.913M13.002,26c0,-2 -0.207,-5.552 -1.421,-9.615c-1.329,-4.454 -3.747,-7.055 -3.567,-7.319c0.164,-0.249 2.29,0.2 3.948,1.34c1.769,1.219 4.168,3.432 4.04,3.582c-0.078,0.093 -0.614,-0.037 -1.69,-0.436c-1.145,-0.427 -2.31,-0.552 -2.31,-0.552c0,0 1.838,2.723 2.779,6.129c0.789,2.858 1.199,6.55 1.221,6.871h-3M35.002,26h-3c0.021,-0.321 0.432,-4.013 1.221,-6.871c0.942,-3.406 2.779,-6.129 2.779,-6.129c0,0 -1.165,0.125 -2.31,0.553c-1.076,0.399 -1.612,0.528 -1.69,0.436c-0.128,-0.15 2.271,-2.363 4.04,-3.582c1.658,-1.14 3.784,-1.589 3.948,-1.34c0.18,0.264 -2.238,2.864 -3.567,7.319c-1.213,4.062 -1.421,7.614 -1.421,9.614M35.002,33c-0.264,0 -2.629,0 -3,0c0,1.231 0.83,1.926 2,1.994c0.312,0.018 0.649,-0.008 1,-0.081c0,-0.998 0,-1.407 0,-1.913M25.717,18.324c-0.881,-2.745 -0.715,-8.324 -0.715,-8.324c0,0 1.048,0.856 2.025,1.313c0.606,0.285 1.817,0.905 1.974,0.656c0.121,-0.2 -2.457,-2.556 -3.469,-4.566c-1.041,-2.055 -1.273,-5.089 -1.53,-5.373c-0.257,0.284 -0.488,3.318 -1.53,5.373c-1.012,2.01 -3.591,4.366 -3.469,4.566c0.157,0.249 1.368,-0.371 1.974,-0.656c0.977,-0.457 2.025,-1.313 2.025,-1.313c0,0 0.167,5.579 -0.715,8.324c-1.285,4.676 -3.063,7.369 -3.285,7.676h3c0.848,-1.49 1.408,-3.114 2,-5.337c0.592,2.224 1.152,3.848 2,5.337h3c-0.221,-0.307 -2,-3 -3.285,-7.676z"></path></g></g></svg>